<?xml version="1.0" standalone="no"?>
<!DOCTYPE svg PUBLIC "-//W3C//DTD SVG 20010904//EN"
 "http://www.w3.org/TR/2001/REC-SVG-20010904/DTD/svg10.dtd">
<svg version="1.0" xmlns="http://www.w3.org/2000/svg"
 width="1825.000000pt" height="1888.000000pt" viewBox="0 0 1825.000000 1888.000000"
 preserveAspectRatio="xMidYMid meet">
<metadata>
Created by potrace 1.16, written by Peter Selinger 2001-2019
</metadata>
<g transform="translate(0.000000,1888.000000) scale(0.100000,-0.100000)"
fill="#000000" stroke="none">
<path d="M7395 17916 l-1470 -962 -3 -8477 -2 -8477 250 0 250 0 0 8308 0
8308 974 637 c536 350 977 637 980 637 3 0 6 -4025 6 -8945 l0 -8945 255 0
255 0 0 9440 c0 7546 -3 9440 -12 9439 -7 0 -674 -434 -1483 -963z"/>
<path d="M9370 9441 l0 -9441 1485 0 1485 0 0 8474 0 8474 -657 430 c-362 236
-1024 669 -1471 961 -448 293 -820 535 -828 538 -12 4 -14 -1327 -14 -9436z"/>
<path d="M3949 12345 l-1474 -915 -5 -1227 -5 -1227 -170 -105 c-94 -58 -648
-403 -1233 -765 l-1062 -660 0 -3723 0 -3723 255 0 255 0 0 3568 0 3567 978
607 977 606 3 -4174 2 -4174 1485 0 1485 0 0 6630 c0 3647 -4 6630 -8 6630 -5
0 -672 -412 -1483 -915z m981 -2304 l0 -2280 -333 207 c-183 114 -624 387
-980 607 l-646 400 2 1068 2 1069 970 603 c534 332 973 604 978 604 4 1 7
-1025 7 -2278z"/>
<path d="M12820 6630 l0 -6630 250 0 250 0 2 3566 3 3567 980 608 980 608 3
-4174 2 -4175 1480 0 1480 0 -2 3726 -3 3727 -1045 649 c-575 356 -1127 699
-1227 761 l-183 112 0 1225 0 1225 -1479 918 c-813 504 -1482 917 -1485 917
-3 0 -6 -2983 -6 -6630z"/>
</g>
</svg>
