<!-- <?xml version="1.0" standalone="no"?>
<!DOCTYPE svg PUBLIC "-//W3C//DTD SVG 20010904//EN"
 "http://www.w3.org/TR/2001/REC-SVG-20010904/DTD/svg10.dtd"> -->
<svg version="1.0" xmlns="http://www.w3.org/2000/svg"
 width="1825.000000pt" height="1888.000000pt" viewBox="0 0 1825.000000 1888.000000"
 preserveAspectRatio="xMidYMid meet">
  <metadata>
  Created by nzxf for Mitra Bangun Kreasi, Late August 2024
  </metadata>
<g transform="translate(0.000000,1888.000000) scale(0.100000,-0.100000)"
fill="#000000" stroke="none">
<path d="M7398 17912 l-1477 -967 -1 -8467 0 -8468 250 0 250 0 0 8308 0 8307
983 642 982 641 3 -8949 2 -8949 245 0 245 0 0 9435 c0 5189 -1 9435 -2 9434
-2 0 -668 -436 -1480 -967z"/>
<path d="M9370 9446 l0 -9436 1480 0 1480 0 0 8469 0 8468 -612 400 c-337 221
-998 652 -1468 960 -470 307 -861 562 -867 567 -10 6 -13 -1883 -13 -9428z"/>
<path d="M3945 12336 l-1470 -913 -3 -1226 -2 -1225 -1230 -763 -1230 -764 0
-3717 0 -3718 245 0 245 0 0 3563 0 3562 272 170 c523 325 716 444 1206 748
l492 305 0 -4174 0 -4174 1480 0 1480 0 0 6620 c0 3641 -3 6620 -7 6619 -5 0
-669 -411 -1478 -913z m995 -2296 c0 -2179 -1 -2290 -17 -2281 -10 5 -452 280
-983 609 l-965 600 -3 1074 -2 1074 977 607 c538 334 981 607 986 607 4 0 7
-1031 7 -2290z"/>
<path d="M12830 6631 l0 -6621 245 0 245 0 0 3563 0 3564 983 610 982 610 3
-4174 2 -4173 1480 0 1480 0 0 3718 -1 3717 -1234 765 -1235 765 0 1225 -1
1225 -1466 910 c-807 501 -1470 912 -1475 913 -4 2 -8 -2976 -8 -6617z"/>
</g>
</svg>
